<svg xmlns="http://www.w3.org/2000/svg" viewBox="0 0 512 512"><path fill="white" d="M509.188 247.27c-4.57-6.39-113.521-156.272-252.182-156.272C118.334 90.998 7.383 240.88 2.813 247.27a14.955 14.955 0 000 17.46c4.57 6.39 115.521 156.271 254.193 156.271 138.661 0 247.612-149.881 252.182-156.272a14.954 14.954 0 000-17.459zM257.006 361c-57.891 0-107.001-47.11-107.001-105.001s49.11-105.001 107.001-105.001 105.001 47.11 105.001 105.001S314.897 361 257.006 361z"/><path d="M257.006 210.999c-24.82 0-47 20.19-47 45 0 24.82 22.18 45 47 45 24.81 0 45-20.18 45-45 0-24.81-20.19-45-45-45z"/></svg>
